<svg xmlns="http://www.w3.org/2000/svg" width="18" height="20" viewBox="0 0 18 20">
    <g fill="none" fill-rule="evenodd">
        <path d="M-3-2h24v24H-3z"/>
        <path fill="#E70" d="M16.016 6.696a1.79 1.79 0 0 0 .01.233c.01.086.073.11.148.068.078-.045.159-.084.237-.128.168-.094.342-.181.502-.289.265-.18.52-.374.78-.56.062-.044.13-.078.191-.12.035-.026.06-.062.01-.098-.092-.065-.18-.141-.28-.19-.226-.106-.436-.189-.661-.282-.132-.056-.266-.106-.398-.16-.09-.036-.175-.081-.265-.111-.137-.046-.226.023-.234.168-.005.087-.013.174-.02.26-.007.097-.037.2-.015.289.042.167-.042.332.01.495l-.003.022c-.004.134-.01.268-.012.403m.42-5.94c-.047-.046-.101-.011-.148.02-.206.134-.41.272-.618.4-.163.102-.33.193-.497.286-.191.107-.384.212-.575.318-.044.024-.084.024-.113-.018a.735.735 0 0 1-.083-.139 12.354 12.354 0 0 1-.185-.458c-.024-.063-.037-.131-.06-.195-.06-.17-.117-.343-.189-.509a3.399 3.399 0 0 0-.213-.404c-.045-.075-.16-.075-.205-.003-.091.153-.184.306-.259.468-.067.146-.11.305-.165.457-.025.069-.062.132-.085.201-.064.184-.119.371-.184.555-.033.09-.096.112-.189.084-.164-.05-.331-.093-.492-.152-.151-.056-.297-.127-.443-.197-.153-.073-.302-.153-.455-.227-.044-.022-.096-.032-.139.01-.043.042-.067.088-.047.152.028.089.04.184.076.269.074.167.147.337.244.492.171.277.361.542.54.814.083.127.198.152.306.043.124-.127.268-.224.422-.307.029-.016.057-.037.088-.044.138-.033.272-.08.417-.099.373-.05.734-.027 1.088.102.035.013.072.028.109.03.177.008.323.107.473.179.182.086.352.2.496.348.049.049.126.046.173-.002a.36.36 0 0 0 .069-.098c.072-.15.144-.301.21-.454.058-.133.107-.27.16-.406.08-.198.158-.397.236-.596l.021-.045c.086-.184.2-.358.235-.564.009-.053.035-.103.06-.175-.023-.04-.041-.097-.08-.135M2.782 3.9c.016-.027.033-.044.03-.054l-.039-.04-.034.029c.006.018.022.035.043.065m11.993 1.045c.008-.087.018-.174.024-.262.005-.094-.016-.125-.101-.165-.032-.015-.067-.029-.093-.052-.134-.121-.393.026-.393.187 0 .153-.033.306-.035.46-.002.137.006.279.035.414.014.065.078.126.133.173.021.017.081-.011.124-.019l.02-.005c.071-.011.107-.057.134-.121.081-.196.128-.4.152-.61M9.492 8.692l.014.001c.004-.141.023-.284.01-.424a8.488 8.488 0 0 0-.086-.653c-.02-.117-.054-.233-.084-.349-.026-.098-.05-.197-.087-.29-.07-.175-.147-.347-.227-.518-.117-.249-.25-.49-.442-.689a5.438 5.438 0 0 0-.393-.366 2.806 2.806 0 0 0-.362-.27c-.165-.099-.34-.18-.511-.27a3.858 3.858 0 0 0-.655-.276c-.3-.089-.597-.194-.915-.218-.338-.025-.677-.063-1.016-.084-.09-.006-.182.022-.272.043-.026.005-.047.038-.07.06.028.012.055.032.084.034.054.006.108 0 .162.003.136.009.27.012.404.054.14.044.293.043.44.065.05.008.101.021.15.038.225.074.447.15.67.225l.008.002c.136.052.274.099.407.158.122.054.238.122.356.185.067.036.132.072.197.11.099.056.202.105.292.173.172.13.337.272.505.408.173.14.307.313.414.507.088.161.17.326.256.488.097.186.16.386.215.588.031.11.059.222.084.334.047.204.102.406.097.62-.006.228-.002.457-.002.685-.001.108-.002.216-.005.325-.009.247-.042.493.006.741.017.092.01.188.007.283-.006.115-.02.23-.03.346-.014.184-.025.369.035.548l.047.054.05-.06v-.062c-.001-.061-.01-.123-.004-.183.01-.096.033-.19.044-.285.031-.262.06-.526.086-.789.043-.43.08-.861.12-1.292m.804.714c-.026.285-.03.574-.085.853-.056.291-.062.582-.072.874a.463.463 0 0 0 .122.339c.084.09.219.078.307-.005.149-.14.196-.325.22-.51a7.97 7.97 0 0 1 .204-1.026c.037-.136.047-.28.075-.418.032-.157.074-.311.106-.468.018-.085.02-.174.035-.26.032-.177.076-.354.102-.532.025-.171.031-.344.047-.516.039-.417.059-.836.123-1.25.046-.299.07-.6.108-.899.044-.344.089-.688.141-1.031.028-.182.056-.366.111-.54.048-.15.138-.287.203-.433.071-.158.192-.273.319-.383.156-.136.345-.201.544-.255.147-.04.291-.053.44-.052.061.001.122.001.183.009.24.027.48.048.716.09.143.027.282.081.417.135.216.086.421.192.593.353.171.162.328.339.401.567.061.19.1.384.08.59-.017.167.002.338.003.507 0 .136-.003.273-.007.409-.002.096-.011.193-.012.29 0 .174.003.348.005.523l.003.013c-.006.155-.008.31-.016.465-.01.198-.026.396-.038.593-.004.048-.01.095-.01.142 0 .08.002.16.004.24 0 .028.008.056.007.084-.008.162-.016.324-.027.487-.012.193-.037.386-.038.578 0 .155.026.31.04.465.003.042.004.085.004.127-.005.212-.01.424-.017.636l-.015.502c-.008.231-.012.462-.022.692-.007.154-.021.307-.034.46-.014.17-.026.34-.047.508-.022.17-.047.341-.08.51-.044.222-.113.44-.145.664-.033.226-.124.43-.2.638-.083.225-.188.442-.29.659-.086.18-.17.362-.276.53-.143.23-.311.442-.493.646a2.913 2.913 0 0 1-.892.663c-.092.046-.195.069-.293.103-.262.095-.54.096-.811.143a3.828 3.828 0 0 1-.737.078c-.035-.001-.07.01-.105.017a1.313 1.313 0 0 1-.477.03c-.091-.014-.107 0-.116.089-.028.284-.057.57-.08.854-.026.303-.046.608-.07.911-.003.045-.015.09-.021.133-.008.052.012.08.068.085.278.023.555.05.833.073.042.004.085 0 .127.003.08.005.105.047.089.125-.013.061-.016.125-.022.188-.009.111-.045.14-.154.132-.28-.025-.56-.048-.841-.07-.334-.024-.668-.046-1.002-.071-.113-.009-.152-.063-.123-.171a2.75 2.75 0 0 1 .069-.216c.015-.042.046-.056.094-.052.11.008.22.008.33.01.051 0 .079-.028.083-.078.028-.368.055-.736.085-1.103.018-.226.041-.452.062-.678.002-.026.007-.052.007-.078 0-.094-.032-.116-.124-.116-.08 0-.158-.017-.236-.03-.09-.017-.18-.046-.27-.053a1.39 1.39 0 0 1-.37-.093c-.193-.07-.39-.128-.582-.2-.16-.06-.317-.131-.475-.2-.12-.053-.242-.104-.357-.168-.217-.12-.447-.215-.64-.38a36.343 36.343 0 0 0-.92-.752 3.962 3.962 0 0 0-.35-.24c-.043-.027-.098-.034-.146-.05-.05-.016-.1-.03-.146-.053l-.033-.063.05-.049c.145-.053.292-.1.439-.154l.055-.052-.038-.06c-.16-.09-.321-.176-.481-.265a1.058 1.058 0 0 0-.385-.116l-.057-.028.025-.06a1.73 1.73 0 0 1 .475-.387c.092-.05.183-.098.277-.142.045-.02.095-.028.143-.039.133-.029.167-.088.145-.22a2.258 2.258 0 0 1-.032-.529c.008-.113-.014-.23-.02-.345-.008-.146-.006-.293-.021-.438a15.785 15.785 0 0 0-.099-.814 2.462 2.462 0 0 0-.104-.395 5.64 5.64 0 0 0-.174-.46 2.367 2.367 0 0 0-.409-.652c-.15-.17-.296-.348-.47-.49a3.364 3.364 0 0 0-.576-.394 3.01 3.01 0 0 0-.79-.3 5.474 5.474 0 0 0-.794-.09c-.153-.009-.308.026-.463.035-.103.006-.21-.01-.31.006-.311.048-.618-.001-.925-.028-.076-.006-.15-.014-.226-.022-.043-.005-.078-.025-.06-.073.048-.135.085-.279.16-.399.104-.17.254-.306.432-.4.122-.066.251-.118.379-.171.105-.044.212-.085.32-.12.043-.015.094-.004.14-.011.026-.004.066-.015.072-.03l-.024-.08c-.048-.043-.104-.076-.158-.112l-.073-.042-.045-.034c-.15-.041-.273-.148-.432-.172-.08-.012-.153-.063-.233-.079a4.746 4.746 0 0 0-.427-.063 4.003 4.003 0 0 0-.389-.026c-.064-.001-.13.02-.193.031-.028.006-.055.018-.083.018-.081 0-.13-.056-.1-.13.056-.144.103-.29.212-.412.12-.134.267-.224.418-.308.117-.065.243-.117.37-.155.125-.038.256-.055.385-.077.204-.034.408-.064.613-.095a.826.826 0 0 1 .105-.01c.193-.004.387-.011.58-.011.07 0 .14.02.21.024.03.002.062-.016.092-.025-.012-.036-.014-.083-.038-.105a4.797 4.797 0 0 0-.344-.283 2.272 2.272 0 0 0-.305-.19 3.271 3.271 0 0 0-.418-.184c-.114-.04-.238-.054-.358-.08-.05-.01-.1-.025-.152-.03a1.938 1.938 0 0 0-.245-.01c-.11.003-.155-.046-.137-.155.03-.184.159-.285.312-.358.207-.1.436-.141.657-.202.125-.034.256-.045.385-.06.25-.026.497-.09.753-.067.069.006.14-.017.21-.018.119-.002.237.002.355.004.138.003.278.003.416.011.154.009.307.027.46.037.06.003.122-.004.183-.007.044-.002.09-.008.134-.004.146.01.292.025.438.038l.062.01c.182.088.386.06.575.112.175.047.354.08.531.12.042.009.084.016.124.028.122.037.243.073.363.112.159.053.317.105.472.166.107.042.21.094.311.15.11.058.217.121.32.192.163.114.334.224.48.359.247.229.486.469.712.718.139.15.258.322.367.495.145.226.283.458.403.698.077.156.119.33.176.496.021.062.048.123.062.187.079.341.126.685.104 1.037-.019.304-.034.608-.051.912l-.016-.001"/>
    </g>
</svg>
