<svg xmlns="http://www.w3.org/2000/svg" width="18" height="18" viewBox="0 0 18 18">
    <path fill="#E70" fill-rule="nonzero" d="M8.824 2.937c.826-.63 1.87-.848 2.724-.567.674.22 1.315.698 1.803 1.344.29.385.646.737 1.025 1.108.371.365.753.739 1.121 1.191.344.42.53 1.004.53 1.601 0 .243-.03.488-.093.726-.186.698-.75 1.295-1.55 1.641l-.22.09c-.202.08-.393.156-.54.273-.15.12-.265.33-.194.48.008.022.022.041.038.06.232.278.322.641.243.971a.937.937 0 0 1-.556.65c-.221.092-.45.176-.68.258-.627.23-1.221.445-1.671.86a2.27 2.27 0 0 0-.698 1.366c-.104.829.256 1.65.635 2.421a.272.272 0 0 1-.245.393h-.917c-.22-.608-.758-2.17-1.074-3.837a1.415 1.415 0 0 0 .799-1.053.27.27 0 0 0-.237-.302.27.27 0 0 0-.303.237.858.858 0 0 1-.357.55 11.373 11.373 0 0 1-.15-1.791c.005-.611.267-1.244.646-1.846.259.038.502.06.72.06 1.279 0 1.808-.551 1.835-.579a.273.273 0 0 0-.01-.381.277.277 0 0 0-.385.005c-.006.008-.516.5-1.811.39 1.044-1.388 2.544-2.487 2.566-2.504.123-.09.15-.259.06-.381a.273.273 0 0 0-.379-.06c-.06.043-.638.466-1.325 1.115-.006-.005-.008-.014-.014-.019-.133-.254.066-.935.248-1.34a.275.275 0 0 0-.136-.36.27.27 0 0 0-.36.137c-.093.202-.537 1.241-.235 1.817.03.054.069.103.11.147-.437.442-.881.957-1.25 1.513-.338.51-.605 1.053-.739 1.599-.954-.268-.848-1.571-.842-1.631a.273.273 0 1 0-.543-.052c-.066.679.136 1.958 1.306 2.225-.002.047-.008.096-.008.142-.016 2.294.895 5.097 1.287 6.2H8.39a.274.274 0 0 1-.158-.053 6.853 6.853 0 0 1-2.452-3.218c-.128-.354-.226-.725-.322-1.083-.196-.725-.379-1.41-.782-1.982-.038-.052-.08-.107-.118-.161-.259-.35-.583-.786-.458-1.296.036-.147.104-.27.164-.381.027-.05.054-.099.076-.15.137-.3.101-.66.066-1.042-.02-.207-.041-.423-.033-.638a2.65 2.65 0 0 1 .957-1.95c.074-.06.164-.128.276-.172a.713.713 0 0 1 .174-.046c.437-.069.627-.562.677-.71.046-.15.117-.283.21-.395.193-.24.463-.37.7-.483.08-.038.159-.076.235-.12.265-.147.496-.354.74-.575.152-.14.31-.281.482-.412zM3.629 1.781C4.339 1.024 5.335.64 6.224.778c.703.109 1.412.478 1.997 1.038.177.167.37.325.575.48a4.07 4.07 0 0 0-.302.207c-.188.143-.353.29-.52.443-.236.215-.433.388-.643.505-.065.037-.133.07-.196.1-.246.116-.616.29-.888.628a1.664 1.664 0 0 0-.308.57c-.06.181-.167.332-.229.342a1.24 1.24 0 0 0-.303.079c-.179.07-.313.169-.422.257a3.198 3.198 0 0 0-1.157 2.352c-.01.239.012.47.031.674l.005.05c.028.301.054.586-.026.765-.014.033-.033.065-.063.119-.065.122-.155.288-.204.494-.187.759.256 1.355.54 1.74a7.4 7.4 0 0 0 .105.142l.014.019c.344.489.507 1.092.701 1.81l.008.028c.096.36.196.732.328 1.098.218.605.526 1.179.9 1.709l-.562.091a.272.272 0 0 1-.165-.024 6.833 6.833 0 0 1-2.94-2.779c-.185-.332-.343-.681-.496-1.02-.308-.682-.599-1.327-1.09-1.825a9.146 9.146 0 0 0-.143-.142c-.312-.304-.7-.682-.66-1.204.01-.147.058-.28.1-.399l.027-.082.025-.082C.347 8.644.256 8.296.16 7.928a5.116 5.116 0 0 1-.137-.63c-.1-.741.135-1.52.63-2.082.063-.07.14-.15.242-.211a.694.694 0 0 1 .17-.076c.414-.135.525-.654.548-.81.02-.147.068-.291.144-.424.15-.263.391-.432.603-.582.074-.052.149-.104.219-.16.242-.19.436-.434.642-.692.129-.16.261-.326.408-.48zm9.478.007c.788-.048 1.623.373 2.183 1.095.114.148.215.303.312.453.154.238.3.462.487.643.052.05.11.099.166.147.177.151.377.322.49.573.054.125.084.251.092.39.008.132.056.57.387.714.038.015.084.04.136.077.097.075.16.154.205.215a2.34 2.34 0 0 1 .376 1.877c-.044.185-.11.36-.172.531-.113.307-.22.596-.176.868.008.05.02.098.032.145.026.106.055.226.053.36-.01.473-.385.772-.685 1.012l-.133.108c-.463.384-.767.914-1.09 1.476-.159.278-.324.566-.51.836a5.957 5.957 0 0 1-2.786 2.161.28.28 0 0 1-.045.013l-1.73.329a2.194 2.194 0 0 1-.052-.756c.047-.384.244-.77.526-1.032.367-.338.882-.525 1.486-.746.214-.077.465-.168.708-.27.444-.188.763-.561.874-1.025.101-.42.022-.873-.215-1.254.09-.052.216-.102.343-.151l.232-.095c.954-.413 1.631-1.143 1.86-2.003.074-.278.11-.569.11-.865 0-.73-.237-1.44-.65-1.945-.377-.463-.76-.84-1.13-1.204l-.033-.033c-.344-.337-.7-.685-.972-1.047a4.5 4.5 0 0 0-1.65-1.364c.322-.134.651-.216.971-.233z"/>
</svg>
